<svg width="18" height="18" viewBox="0 0 18 18" fill="none" xmlns="http://www.w3.org/2000/svg">
  <path fill-rule="evenodd" clip-rule="evenodd" d="M6.49999 17.9582H11.5C16.025 17.9582 17.9583 16.0248 17.9583 11.4998V6.49984C17.9583 1.97484 16.025 0.0415039 11.5 0.0415039H6.49999C1.97499 0.0415039 0.0416565 1.97484 0.0416565 6.49984V11.4998C0.0416565 16.0248 1.97499 17.9582 6.49999 17.9582ZM1.29166 6.49984C1.29166 2.65817 2.65832 1.2915 6.49999 1.2915H11.5C15.3417 1.2915 16.7083 2.65817 16.7083 6.49984V11.4998C16.7083 15.3415 15.3417 16.7082 11.5 16.7082H6.49999C2.65832 16.7082 1.29166 15.3415 1.29166 11.4998V6.49984ZM8.55833 11.2416C8.68333 11.3666 8.84166 11.4249 8.99999 11.4249C9.15833 11.4249 9.31666 11.3666 9.44166 11.2416L12.3833 8.29993C12.625 8.05827 12.625 7.65827 12.3833 7.4166C12.1417 7.17493 11.7417 7.17493 11.5 7.4166L8.99999 9.9166L6.49999 7.4166C6.25833 7.17493 5.85833 7.17493 5.61666 7.4166C5.37499 7.65827 5.37499 8.05827 5.61666 8.29993L8.55833 11.2416Z" fill="#999FA6" />
</svg>